<mxfile host="app.diagrams.net" modified="2024-02-03T03:21:42.464Z" agent="Mozilla/5.0 (Macintosh; Intel Mac OS X 10_15_7) AppleWebKit/537.36 (KHTML, like Gecko) Chrome/121.0.0.0 Safari/537.36" etag="4oDkIxY9d6rPIPOftAGq" version="23.1.1" type="device">
  <diagram name="Page-1" id="flppIZNBfG50xURliI22">
    <mxGraphModel dx="954" dy="640" grid="1" gridSize="10" guides="1" tooltips="1" connect="1" arrows="1" fold="1" page="1" pageScale="1" pageWidth="827" pageHeight="1169" math="0" shadow="0">
      <root>
        <mxCell id="0" />
        <mxCell id="1" parent="0" />
        <mxCell id="yi7blhDKXnzwgQG6F_lO-4" value="" style="edgeStyle=orthogonalEdgeStyle;rounded=0;orthogonalLoop=1;jettySize=auto;html=1;" edge="1" parent="1" source="yi7blhDKXnzwgQG6F_lO-1" target="yi7blhDKXnzwgQG6F_lO-3">
          <mxGeometry relative="1" as="geometry" />
        </mxCell>
        <mxCell id="yi7blhDKXnzwgQG6F_lO-1" value="Take Input" style="rounded=0;whiteSpace=wrap;html=1;" vertex="1" parent="1">
          <mxGeometry x="330" y="480" width="120" height="60" as="geometry" />
        </mxCell>
        <mxCell id="yi7blhDKXnzwgQG6F_lO-2" style="edgeStyle=orthogonalEdgeStyle;rounded=0;orthogonalLoop=1;jettySize=auto;html=1;exitX=0.5;exitY=1;exitDx=0;exitDy=0;" edge="1" parent="1" source="yi7blhDKXnzwgQG6F_lO-1" target="yi7blhDKXnzwgQG6F_lO-1">
          <mxGeometry relative="1" as="geometry" />
        </mxCell>
        <mxCell id="yi7blhDKXnzwgQG6F_lO-8" value="" style="edgeStyle=orthogonalEdgeStyle;rounded=0;orthogonalLoop=1;jettySize=auto;html=1;" edge="1" parent="1" source="yi7blhDKXnzwgQG6F_lO-3" target="yi7blhDKXnzwgQG6F_lO-7">
          <mxGeometry relative="1" as="geometry" />
        </mxCell>
        <mxCell id="yi7blhDKXnzwgQG6F_lO-3" value="Give EDA Report" style="rounded=0;whiteSpace=wrap;html=1;" vertex="1" parent="1">
          <mxGeometry x="330" y="620" width="120" height="60" as="geometry" />
        </mxCell>
        <mxCell id="yi7blhDKXnzwgQG6F_lO-10" value="" style="edgeStyle=orthogonalEdgeStyle;rounded=0;orthogonalLoop=1;jettySize=auto;html=1;" edge="1" parent="1" source="yi7blhDKXnzwgQG6F_lO-7" target="yi7blhDKXnzwgQG6F_lO-9">
          <mxGeometry relative="1" as="geometry" />
        </mxCell>
        <mxCell id="yi7blhDKXnzwgQG6F_lO-12" value="" style="edgeStyle=orthogonalEdgeStyle;rounded=0;orthogonalLoop=1;jettySize=auto;html=1;" edge="1" parent="1" source="yi7blhDKXnzwgQG6F_lO-7" target="yi7blhDKXnzwgQG6F_lO-11">
          <mxGeometry relative="1" as="geometry" />
        </mxCell>
        <mxCell id="yi7blhDKXnzwgQG6F_lO-7" value="Clean Data" style="rhombus;whiteSpace=wrap;html=1;rounded=0;" vertex="1" parent="1">
          <mxGeometry x="350" y="750" width="80" height="80" as="geometry" />
        </mxCell>
        <mxCell id="yi7blhDKXnzwgQG6F_lO-15" value="" style="edgeStyle=orthogonalEdgeStyle;rounded=0;orthogonalLoop=1;jettySize=auto;html=1;" edge="1" parent="1" source="yi7blhDKXnzwgQG6F_lO-9" target="yi7blhDKXnzwgQG6F_lO-14">
          <mxGeometry relative="1" as="geometry" />
        </mxCell>
        <mxCell id="yi7blhDKXnzwgQG6F_lO-9" value="Yes" style="whiteSpace=wrap;html=1;rounded=0;" vertex="1" parent="1">
          <mxGeometry x="490" y="760" width="120" height="60" as="geometry" />
        </mxCell>
        <mxCell id="yi7blhDKXnzwgQG6F_lO-13" style="edgeStyle=orthogonalEdgeStyle;rounded=0;orthogonalLoop=1;jettySize=auto;html=1;entryX=0;entryY=0.25;entryDx=0;entryDy=0;" edge="1" parent="1">
          <mxGeometry relative="1" as="geometry">
            <mxPoint x="330" y="495" as="targetPoint" />
            <mxPoint x="220" y="760" as="sourcePoint" />
            <Array as="points">
              <mxPoint x="220" y="510" />
              <mxPoint x="330" y="510" />
            </Array>
          </mxGeometry>
        </mxCell>
        <mxCell id="yi7blhDKXnzwgQG6F_lO-11" value="No" style="whiteSpace=wrap;html=1;rounded=0;" vertex="1" parent="1">
          <mxGeometry x="170" y="760" width="120" height="60" as="geometry" />
        </mxCell>
        <mxCell id="yi7blhDKXnzwgQG6F_lO-17" value="" style="edgeStyle=orthogonalEdgeStyle;rounded=0;orthogonalLoop=1;jettySize=auto;html=1;" edge="1" parent="1" source="yi7blhDKXnzwgQG6F_lO-14" target="yi7blhDKXnzwgQG6F_lO-16">
          <mxGeometry relative="1" as="geometry" />
        </mxCell>
        <mxCell id="yi7blhDKXnzwgQG6F_lO-19" value="" style="edgeStyle=orthogonalEdgeStyle;rounded=0;orthogonalLoop=1;jettySize=auto;html=1;" edge="1" parent="1" source="yi7blhDKXnzwgQG6F_lO-14" target="yi7blhDKXnzwgQG6F_lO-18">
          <mxGeometry relative="1" as="geometry" />
        </mxCell>
        <mxCell id="yi7blhDKXnzwgQG6F_lO-14" value="Handle Categorical Variables" style="whiteSpace=wrap;html=1;rounded=0;" vertex="1" parent="1">
          <mxGeometry x="490" y="900" width="120" height="60" as="geometry" />
        </mxCell>
        <mxCell id="yi7blhDKXnzwgQG6F_lO-21" style="edgeStyle=orthogonalEdgeStyle;rounded=0;orthogonalLoop=1;jettySize=auto;html=1;entryX=0;entryY=0.5;entryDx=0;entryDy=0;" edge="1" parent="1" source="yi7blhDKXnzwgQG6F_lO-16" target="yi7blhDKXnzwgQG6F_lO-20">
          <mxGeometry relative="1" as="geometry">
            <Array as="points">
              <mxPoint x="350" y="1040" />
            </Array>
          </mxGeometry>
        </mxCell>
        <mxCell id="yi7blhDKXnzwgQG6F_lO-16" value="Dummy Vairables" style="whiteSpace=wrap;html=1;rounded=0;" vertex="1" parent="1">
          <mxGeometry x="290" y="900" width="120" height="60" as="geometry" />
        </mxCell>
        <mxCell id="yi7blhDKXnzwgQG6F_lO-22" style="edgeStyle=orthogonalEdgeStyle;rounded=0;orthogonalLoop=1;jettySize=auto;html=1;entryX=1;entryY=0.75;entryDx=0;entryDy=0;" edge="1" parent="1" source="yi7blhDKXnzwgQG6F_lO-18" target="yi7blhDKXnzwgQG6F_lO-20">
          <mxGeometry relative="1" as="geometry">
            <Array as="points">
              <mxPoint x="750" y="1040" />
              <mxPoint x="610" y="1040" />
            </Array>
          </mxGeometry>
        </mxCell>
        <mxCell id="yi7blhDKXnzwgQG6F_lO-18" value="Labels" style="whiteSpace=wrap;html=1;rounded=0;" vertex="1" parent="1">
          <mxGeometry x="690" y="900" width="120" height="60" as="geometry" />
        </mxCell>
        <mxCell id="yi7blhDKXnzwgQG6F_lO-25" value="" style="edgeStyle=orthogonalEdgeStyle;rounded=0;orthogonalLoop=1;jettySize=auto;html=1;" edge="1" parent="1" source="yi7blhDKXnzwgQG6F_lO-20" target="yi7blhDKXnzwgQG6F_lO-24">
          <mxGeometry relative="1" as="geometry" />
        </mxCell>
        <mxCell id="yi7blhDKXnzwgQG6F_lO-20" value="Take Targeted Column" style="rounded=0;whiteSpace=wrap;html=1;" vertex="1" parent="1">
          <mxGeometry x="490" y="1010" width="120" height="60" as="geometry" />
        </mxCell>
        <mxCell id="yi7blhDKXnzwgQG6F_lO-27" value="" style="edgeStyle=orthogonalEdgeStyle;rounded=0;orthogonalLoop=1;jettySize=auto;html=1;" edge="1" parent="1" source="yi7blhDKXnzwgQG6F_lO-24" target="yi7blhDKXnzwgQG6F_lO-26">
          <mxGeometry relative="1" as="geometry" />
        </mxCell>
        <mxCell id="yi7blhDKXnzwgQG6F_lO-29" value="" style="edgeStyle=orthogonalEdgeStyle;rounded=0;orthogonalLoop=1;jettySize=auto;html=1;" edge="1" parent="1" source="yi7blhDKXnzwgQG6F_lO-24" target="yi7blhDKXnzwgQG6F_lO-28">
          <mxGeometry relative="1" as="geometry" />
        </mxCell>
        <mxCell id="yi7blhDKXnzwgQG6F_lO-24" value="Select Mode" style="rhombus;whiteSpace=wrap;html=1;rounded=0;" vertex="1" parent="1">
          <mxGeometry x="510" y="1140" width="80" height="80" as="geometry" />
        </mxCell>
        <mxCell id="yi7blhDKXnzwgQG6F_lO-31" value="" style="edgeStyle=orthogonalEdgeStyle;rounded=0;orthogonalLoop=1;jettySize=auto;html=1;" edge="1" parent="1" source="yi7blhDKXnzwgQG6F_lO-26" target="yi7blhDKXnzwgQG6F_lO-30">
          <mxGeometry relative="1" as="geometry" />
        </mxCell>
        <mxCell id="yi7blhDKXnzwgQG6F_lO-26" value="Manual" style="whiteSpace=wrap;html=1;rounded=0;" vertex="1" parent="1">
          <mxGeometry x="330" y="1150" width="120" height="60" as="geometry" />
        </mxCell>
        <mxCell id="yi7blhDKXnzwgQG6F_lO-35" value="" style="edgeStyle=orthogonalEdgeStyle;rounded=0;orthogonalLoop=1;jettySize=auto;html=1;" edge="1" parent="1" source="yi7blhDKXnzwgQG6F_lO-28" target="yi7blhDKXnzwgQG6F_lO-34">
          <mxGeometry relative="1" as="geometry" />
        </mxCell>
        <mxCell id="yi7blhDKXnzwgQG6F_lO-28" value="Automated" style="whiteSpace=wrap;html=1;rounded=0;" vertex="1" parent="1">
          <mxGeometry x="650" y="1150" width="120" height="60" as="geometry" />
        </mxCell>
        <mxCell id="yi7blhDKXnzwgQG6F_lO-33" value="" style="edgeStyle=orthogonalEdgeStyle;rounded=0;orthogonalLoop=1;jettySize=auto;html=1;" edge="1" parent="1" source="yi7blhDKXnzwgQG6F_lO-30" target="yi7blhDKXnzwgQG6F_lO-32">
          <mxGeometry relative="1" as="geometry" />
        </mxCell>
        <mxCell id="yi7blhDKXnzwgQG6F_lO-30" value="Select type of task - Classification or Regression" style="whiteSpace=wrap;html=1;rounded=0;" vertex="1" parent="1">
          <mxGeometry x="330" y="1290" width="120" height="60" as="geometry" />
        </mxCell>
        <mxCell id="yi7blhDKXnzwgQG6F_lO-36" style="edgeStyle=orthogonalEdgeStyle;rounded=0;orthogonalLoop=1;jettySize=auto;html=1;" edge="1" parent="1" source="yi7blhDKXnzwgQG6F_lO-32">
          <mxGeometry relative="1" as="geometry">
            <mxPoint x="620" y="1520" as="targetPoint" />
            <Array as="points">
              <mxPoint x="535" y="1530" />
              <mxPoint x="535" y="1521" />
            </Array>
          </mxGeometry>
        </mxCell>
        <mxCell id="yi7blhDKXnzwgQG6F_lO-32" value="Select required parameters" style="whiteSpace=wrap;html=1;rounded=0;" vertex="1" parent="1">
          <mxGeometry x="330" y="1500" width="120" height="60" as="geometry" />
        </mxCell>
        <mxCell id="yi7blhDKXnzwgQG6F_lO-34" value="Give the following files:&lt;br&gt;1. .pkl file of model&lt;br&gt;2. JSON File&amp;nbsp;&lt;br&gt;3. Text file&amp;nbsp;&lt;br&gt;4..ipynb File for Gradio Interface&lt;br&gt;5. Information file" style="whiteSpace=wrap;html=1;rounded=0;" vertex="1" parent="1">
          <mxGeometry x="630" y="1440" width="160" height="180" as="geometry" />
        </mxCell>
      </root>
    </mxGraphModel>
  </diagram>
</mxfile>
